<svg width="1200" height="630" viewBox="0 0 1200 630" fill="none" xmlns="http://www.w3.org/2000/svg">
  <rect width="1200" height="630" fill="#F8FAFC"/>
  <rect x="48" y="48" width="1104" height="534" rx="36" fill="#FFFFFF" stroke="#0F172A" stroke-opacity="0.08" stroke-width="2"/>
  <rect x="96" y="96" width="126" height="126" rx="28" fill="#0F766E"/>
  <path d="M128 146H190" stroke="#FFFFFF" stroke-width="10" stroke-linecap="round"/>
  <path d="M128 174H176" stroke="#D1FAE5" stroke-width="10" stroke-linecap="round"/>
  <path d="M128 202H164" stroke="#E0F2FE" stroke-width="10" stroke-linecap="round"/>

  <text x="256" y="150" fill="#0F172A" font-family="Arial, 'Microsoft YaHei', sans-serif" font-size="52" font-weight="700">车载终端</text>
  <text x="256" y="205" fill="#334155" font-family="Arial, 'Microsoft YaHei', sans-serif" font-size="30" font-weight="600">测试开发与自动化回归</text>
  <text x="256" y="252" fill="#475569" font-family="Arial, 'Microsoft YaHei', sans-serif" font-size="24">TBOX 定位 / 通信 / 上报 / 诊断 / ECALL</text>

  <rect x="96" y="300" width="1008" height="1" fill="#E2E8F0"/>

  <text x="96" y="360" fill="#0F172A" font-family="Arial, 'Microsoft YaHei', sans-serif" font-size="34" font-weight="700">从经历到项目，再到归档博客</text>
  <text x="96" y="408" fill="#475569" font-family="Arial, 'Microsoft YaHei', sans-serif" font-size="22">把车载终端测试中的场景、命令、日志和验证思路整理成可复用的技术记录。</text>

  <g transform="translate(96 456)">
    <rect x="0" y="0" width="168" height="56" rx="16" fill="#0F766E" fill-opacity="0.10"/>
    <text x="84" y="36" text-anchor="middle" fill="#0F766E" font-family="Arial, 'Microsoft YaHei', sans-serif" font-size="22" font-weight="600">TBOX</text>

    <rect x="188" y="0" width="168" height="56" rx="16" fill="#0EA5E9" fill-opacity="0.10"/>
    <text x="272" y="36" text-anchor="middle" fill="#0284C7" font-family="Arial, 'Microsoft YaHei', sans-serif" font-size="22" font-weight="600">CANFD</text>

    <rect x="376" y="0" width="168" height="56" rx="16" fill="#F97316" fill-opacity="0.10"/>
    <text x="460" y="36" text-anchor="middle" fill="#C2410C" font-family="Arial, 'Microsoft YaHei', sans-serif" font-size="22" font-weight="600">DOIP</text>

    <rect x="564" y="0" width="168" height="56" rx="16" fill="#7C3AED" fill-opacity="0.10"/>
    <text x="648" y="36" text-anchor="middle" fill="#6D28D9" font-family="Arial, 'Microsoft YaHei', sans-serif" font-size="22" font-weight="600">ECALL</text>

    <rect x="752" y="0" width="168" height="56" rx="16" fill="#DC2626" fill-opacity="0.10"/>
    <text x="836" y="36" text-anchor="middle" fill="#B91C1C" font-family="Arial, 'Microsoft YaHei', sans-serif" font-size="22" font-weight="600">脚本</text>
  </g>
</svg>
